<svg xmlns="http://www.w3.org/2000/svg" xmlns:xlink="http://www.w3.org/1999/xlink" width="500" zoomAndPan="magnify" viewBox="0 0 375 374.999991" height="500" preserveAspectRatio="xMidYMid meet" version="1.0"><defs><clipPath id="4b7a0b6fef"><path d="M 40.367188 66 L 326 66 L 326 318 L 40.367188 318 Z M 40.367188 66 " clip-rule="nonzero"/></clipPath><clipPath id="a383830901"><path d="M 48 57 L 334.367188 57 L 334.367188 308 L 48 308 Z M 48 57 " clip-rule="nonzero"/></clipPath><clipPath id="b3bd29a7db"><path d="M 41 56.496094 L 334.367188 56.496094 L 334.367188 315 L 41 315 Z M 41 56.496094 " clip-rule="nonzero"/></clipPath><clipPath id="0871d12090"><path d="M 112.5 123 L 184 123 L 184 216.472656 L 112.5 216.472656 Z M 112.5 123 " clip-rule="nonzero"/></clipPath><clipPath id="28b20078a8"><path d="M 211 102.472656 L 262.5 102.472656 L 262.5 170 L 211 170 Z M 211 102.472656 " clip-rule="nonzero"/></clipPath></defs><g clip-path="url(#4b7a0b6fef)"><path fill="#3dafac" d="M 71.816406 66.988281 C 54.453125 66.988281 40.375 81.066406 40.375 98.433594 L 40.375 228.050781 C 40.375 245.414062 54.453125 259.492188 71.816406 259.492188 L 211.78125 259.492188 L 277.289062 316.925781 C 279.078125 318.496094 281.851562 316.996094 281.523438 314.640625 L 273.824219 259.492188 L 294.347656 259.492188 C 311.710938 259.492188 325.789062 245.414062 325.789062 228.050781 L 325.789062 98.433594 C 325.789062 81.066406 311.710938 66.988281 294.347656 66.988281 Z M 71.816406 66.988281 " fill-opacity="1" fill-rule="evenodd"/></g><g clip-path="url(#a383830901)"><path fill="#ffffff" d="M 80.03125 57.109375 C 62.664062 57.109375 48.589844 71.1875 48.589844 88.550781 L 48.589844 218.167969 C 48.589844 235.53125 62.664062 249.609375 80.03125 249.609375 L 219.996094 249.609375 L 285.5 307.046875 C 287.289062 308.613281 290.066406 307.117188 289.734375 304.761719 L 282.035156 249.609375 L 302.5625 249.609375 C 319.925781 249.609375 334.003906 235.53125 334.003906 218.167969 L 334.003906 88.550781 C 334.003906 71.1875 319.925781 57.109375 302.5625 57.109375 Z M 80.03125 57.109375 " fill-opacity="1" fill-rule="nonzero"/></g><g clip-path="url(#b3bd29a7db)"><path stroke-linecap="butt" transform="matrix(0.122652, 0, 0, 0.122652, 3.211315, 3.388388)" fill="none" stroke-linejoin="miter" d="M 626.326454 437.996663 C 484.728716 437.996663 369.979133 552.778095 369.979133 694.343984 L 369.979133 1751.135737 C 369.979133 1892.701627 484.728716 2007.483059 626.326454 2007.483059 L 1767.484471 2007.483059 L 2301.549353 2475.78111 C 2316.135894 2488.552296 2338.780067 2476.35438 2336.072958 2457.149829 L 2273.299872 2007.483059 L 2440.66292 2007.483059 C 2582.228809 2007.483059 2697.010241 1892.701627 2697.010241 1751.135737 L 2697.010241 694.343984 C 2697.010241 552.778095 2582.228809 437.996663 2440.66292 437.996663 Z M 626.326454 437.996663 " stroke="#000000" stroke-width="10" stroke-opacity="1" stroke-miterlimit="4"/></g><g clip-path="url(#0871d12090)"><path fill="#3dafac" d="M 181.550781 167.675781 C 154.878906 167.496094 150.117188 164.316406 149.914062 124.945312 C 149.910156 123.953125 149.101562 123.144531 148.113281 123.144531 C 147.121094 123.144531 146.316406 123.953125 146.308594 124.945312 C 146.105469 164.316406 141.34375 167.496094 114.671875 167.675781 C 113.472656 167.679688 112.5 168.65625 112.5 169.84375 C 112.5 171.035156 113.472656 172.007812 114.671875 172.015625 C 141.34375 172.195312 146.105469 175.371094 146.308594 214.746094 C 146.3125 215.738281 147.121094 216.546875 148.109375 216.546875 C 149.097656 216.546875 149.90625 215.738281 149.914062 214.746094 C 150.113281 175.375 154.878906 172.195312 181.550781 172.019531 C 182.746094 172.011719 183.722656 171.035156 183.722656 169.847656 C 183.722656 168.65625 182.746094 167.679688 181.550781 167.675781 Z M 181.550781 167.675781 " fill-opacity="1" fill-rule="nonzero"/></g><g clip-path="url(#28b20078a8)"><path fill="#3dafac" d="M 261.25 135.054688 C 241.835938 134.925781 238.019531 132.390625 237.871094 103.597656 C 237.871094 103.058594 237.429688 102.617188 236.894531 102.617188 C 236.355469 102.617188 235.917969 103.058594 235.914062 103.597656 C 235.769531 132.390625 231.949219 134.925781 212.539062 135.054688 C 211.847656 135.058594 211.289062 135.617188 211.289062 136.300781 C 211.289062 136.984375 211.847656 137.542969 212.539062 137.546875 C 231.953125 137.675781 235.769531 140.210938 235.914062 169.003906 C 235.917969 169.542969 236.359375 169.984375 236.894531 169.984375 C 237.429688 169.984375 237.871094 169.542969 237.871094 169.003906 C 238.019531 140.210938 241.839844 137.675781 261.25 137.546875 C 261.9375 137.542969 262.5 136.984375 262.5 136.300781 C 262.5 135.617188 261.9375 135.058594 261.25 135.054688 Z M 261.25 135.054688 " fill-opacity="1" fill-rule="nonzero"/></g><path fill="#3dafac" d="M 210.820312 186.996094 C 209.597656 190.582031 207.515625 193.265625 204.804688 194.71875 C 207.515625 196.171875 209.597656 198.855469 210.820312 202.441406 C 212.042969 198.855469 214.128906 196.171875 216.839844 194.71875 C 214.128906 193.265625 212.042969 190.582031 210.820312 186.996094 Z M 210.820312 186.996094 " fill-opacity="1" fill-rule="nonzero"/><path fill="#3dafac" d="M 175.335938 129.640625 C 176.558594 126.054688 178.644531 123.371094 181.351562 121.917969 C 178.644531 120.460938 176.558594 117.777344 175.335938 114.195312 C 174.113281 117.777344 172.027344 120.464844 169.316406 121.917969 C 172.027344 123.371094 174.113281 126.054688 175.335938 129.640625 Z M 175.335938 129.640625 " fill-opacity="1" fill-rule="nonzero"/></svg>